HIERARCHY
ROOT pelvis
{
  OFFSET 0 100 0
  CHANNELS 6 Xposition Yposition Zposition Zrotation Xrotation Yrotation
  JOINT pelvis_right_femur
  {
    OFFSET -10.78128 -3.44521 -0.5502486
    CHANNELS 3 Zrotation Xrotation Yrotation
    JOINT right_femur_tibia
    {
      OFFSET -0.8047443 -44.0398 -0.1307829
      CHANNELS 3 Zrotation Xrotation Yrotation
      JOINT right_tibia_foot
      {
        OFFSET 3.006224 -47.83518 -5
        CHANNELS 3 Zrotation Xrotation Yrotation
        End Site
        {
          OFFSET 0 -5 15
        }
      }
    }
  }
  JOINT pelvis_left_femur
  {
    OFFSET 10.78128 -3.44521 -0.5502486
    CHANNELS 3 Zrotation Xrotation Yrotation
    JOINT left_femur_tibia
    {
      OFFSET 0.8047443 -44.0398 -0.1307829
      CHANNELS 3 Zrotation Xrotation Yrotation
      JOINT left_tibia_foot
      {
        OFFSET -4.370144 -48.10324 -4.275266
        CHANNELS 3 Zrotation Xrotation Yrotation
        End Site
        {
          OFFSET 0 -5 15
        }
      }
    }
  }
  JOINT pelvis_spine1
  {
    OFFSET 0 6.468898 -3.129235
    CHANNELS 3 Zrotation Xrotation Yrotation
    JOINT spine1
    {
      OFFSET 0 23.15396 4.99043
      CHANNELS 3 Zrotation Xrotation Yrotation
      JOINT spine2
      {
        OFFSET 0 20.79997 -5.064912
        CHANNELS 3 Zrotation Xrotation Yrotation
        JOINT neck
        {
          OFFSET 0 14.38658 9.616178
          CHANNELS 3 Zrotation Xrotation Yrotation
          End Site
          {
            OFFSET 0 20 0
          }
        }
      }
      JOINT right_manubrium
      {
        OFFSET -5.722621 16.35077 3.967754
        CHANNELS 3 Zrotation Xrotation Yrotation
        JOINT right_clavicle
        {
          OFFSET -13.16364 1.694482 -4.693211
          CHANNELS 3 Zrotation Xrotation Yrotation
          JOINT right_humerus
          {
            OFFSET -28.5034 -0.3100689 -2.792744
            CHANNELS 3 Zrotation Xrotation Yrotation
            JOINT right_radius
            {
              OFFSET -25.15693 0.02248979 -1.271978
              CHANNELS 3 Zrotation Xrotation Yrotation
              End Site
              {
                OFFSET -15 0 0
              }
            }
          }
        }
      }
      JOINT left_manubrium
      {
        OFFSET 5.722621 16.35077 3.967754
        CHANNELS 3 Zrotation Xrotation Yrotation
        JOINT left_clavicle
        {
          OFFSET 13.16364 1.694482 -4.693211
          CHANNELS 3 Zrotation Xrotation Yrotation
          JOINT left_humerus
          {
            OFFSET 29.39168 -1.063119 -2.237045
            CHANNELS 3 Zrotation Xrotation Yrotation
            JOINT left_radius
            {
              OFFSET 24.59957 -0.9528479 0.9047498
              CHANNELS 3 Zrotation Xrotation Yrotation
              End Site
              {
                OFFSET 15 -0 -0
              }
            }
          }
        }
      }
    }
  }
}
MOTION
Frames: 19
Frame Time: 0.0416666666667
0 103.5113 0 0.9770062 -1.522808 0.1132507 2.137272 -12.64901 9.248886 -0 40.65743 -0 -6.908778 -17.3143 -4.891568 -6.378023 10.81268 -24.19106 -0 3.592142 -0 5.324368 -16.16641 25.71126 -1.759185 -1.494796 2.77418 2.128185 5.817448 -7.563425 1.452851 23.90616 7.007909 3.801713 -22.88506 8.588684 5.57263 -17.5939 10.35304 87.81451 35.34743 -23.15422 -0 0 15.04646 -6.178829 8.633184 1.906218 5.102104 -19.38133 -2.956423 -101.3617 42.22678 28.55354 0 0 -20.48983 -10.49245 19.26785 27.89903
0.2291632 103.5989 1.519353 1.055415 -0.7835558 0.2230638 2.270459 -14.69712 9.988903 -0 41.14155 -0 -5.596585 -17.0952 -4.827745 -6.661231 11.5166 -24.78571 -0 3.380694 -0 5.158298 -17.271 26.05296 -1.774957 -1.484737 2.748633 2.17594 5.841713 -7.627263 1.423833 23.85632 7.054579 3.806447 -23.0243 8.612652 5.565108 -17.54024 10.36788 87.94871 35.36703 -23.3301 -0 0 14.81739 -6.17353 8.556915 1.969645 5.114013 -19.45213 -2.936016 -101.028 42.15667 28.17236 0 0 -20.81101 -10.28585 19.11143 27.68858
0.4609592 103.484 3.121791 0.7922828 0.05079285 0.336779 3.445943 -20.85578 9.139214 -0 37.83292 -0 -5.278406 -12.7523 -3.591354 -6.857111 12.865 -24.17107 -0 3.843714 -0 5.774098 -19.97832 25.97956 -1.877287 -1.304395 3.010461 2.257177 6.383532 -7.674539 1.182426 23.39941 7.255335 3.858429 -23.43653 8.413951 5.578153 -17.57512 10.68983 87.60519 35.75917 -22.512 -0 0 14.12082 -7.892312 9.074671 3.633269 4.914732 -19.5985 -2.890445 -98.68653 40.09821 26.31988 0 0 -21.37954 -8.575272 17.75245 25.7507
0.6906984 103.2236 4.84988 0.5598834 1.042182 0.4874641 4.275818 -24.89142 9.053684 -0 35.14782 -0 -4.355107 -11.21897 -3.130706 -6.898351 13.60319 -23.78109 -0 3.99281 -0 5.397485 -21.72684 25.39674 -1.929676 -1.224847 3.040048 2.348565 6.590639 -7.785028 1.072337 23.1894 7.380642 3.875451 -23.72668 8.385023 5.570628 -17.47053 10.81165 87.71722 35.93283 -22.53086 -0 0 13.51363 -8.483203 9.196213 4.263437 4.865751 -19.76057 -2.861182 -97.45537 39.30492 25.14841 0 0 -22.07639 -7.777311 17.09754 24.86991
0.9120282 102.7993 6.85703 0.1576606 2.388442 0.702632 5.418837 -29.33822 9.128188 -0 31.42538 -0 -3.036271 -10.37869 -2.879523 -6.772998 14.36654 -23.11506 -0 4.542058 -0 4.201116 -23.45316 23.94947 -1.989004 -1.12347 3.124248 2.431966 6.886836 -7.881772 0.9400822 22.9224 7.504509 3.891433 -23.99771 8.305012 5.560281 -17.39249 10.97761 87.72513 36.12089 -22.35273 -0 0 12.898 -9.362839 9.4272 5.128942 4.783977 -19.93029 -2.843557 -96.01681 38.13653 23.85741 0 0 -22.72553 -6.773831 16.26744 23.72948
1.123327 102.2484 9.224058 -0.2883678 3.500512 0.9878878 6.458526 -32.46732 9.181154 -0 28.09456 -0 -2.021101 -10.19926 -2.851704 -6.522752 14.90297 -22.31852 -0 5.711462 -0 2.627969 -24.36236 22.07418 -2.033912 -1.049969 3.145527 2.5185 7.093418 -7.996008 0.8435398 22.72177 7.60681 3.897468 -24.23423 8.27014 5.544277 -17.27746 11.09017 87.85801 36.25253 -22.40191 -0 0 12.30742 -9.935034 9.561896 5.712665 4.742079 -20.10538 -2.831013 -94.87193 37.30349 22.74427 0 0 -23.40829 -6.013162 15.63532 22.86971
1.32202 101.6361 12.0615 -0.8163736 4.366951 1.341038 7.462263 -34.57169 9.082356 -0 25.01457 -0 -1.407425 -10.40572 -2.988716 -6.135763 15.3143 -21.29504 -0 7.942352 -0 0.6824521 -24.44627 19.67815 -2.073977 -0.976935 3.181598 2.587483 7.306 -8.088959 0.7551157 22.53008 7.690324 3.899862 -24.41258 8.218705 5.527985 -17.18006 11.20229 87.93728 36.36702 -22.37309 -0 0 11.78963 -10.55298 9.734905 6.304989 4.693788 -20.26222 -2.830354 -93.81486 36.42933 21.73898 0 0 -23.98207 -5.29091 15.02513 22.03749
1.5097 101.0367 15.42044 -1.343566 4.743859 1.729596 8.216589 -35.29237 8.611147 -0 22.55418 -0 -1.545036 -10.59196 -3.184303 -5.67152 15.49081 -20.08218 -0 11.2639 -0 -1.170304 -23.58343 17.18752 -2.106185 -0.9114269 3.217427 2.636807 7.493466 -8.158751 0.6837005 22.37014 7.753445 3.899686 -24.52801 8.165451 5.513851 -17.09586 11.29871 87.98309 36.4608 -22.31261 -0 0 11.36579 -11.13011 9.918303 6.828824 4.648296 -20.39116 -2.839407 -92.93517 35.64636 20.90793 0 0 -24.43586 -4.692169 14.50581 21.33728
1.689617 100.5463 19.32641 -1.831366 4.599791 2.113657 8.691583 -34.6588 7.728546 -0 20.71507 -0 -2.461393 -10.60591 -3.393893 -5.15696 15.34998 -18.6818 -0 15.7778 -0 -2.756952 -21.81876 14.78453 -2.132421 -0.8441593 3.282625 2.65001 7.680957 -8.180152 0.624301 22.23308 7.793273 3.900289 -24.55004 8.087967 5.506111 -17.049 11.3934 87.91202 36.54542 -22.08959 -0 0 11.08666 -11.79459 10.16492 7.375175 4.588897 -20.46989 -2.863522 -92.21439 34.86054 20.28431 0 0 -24.67311 -4.191543 14.04142 20.73199
1.866527 100.2574 23.74862 -2.213889 3.938254 2.445634 8.875985 -32.73902 6.482406 -0 19.46281 -0 -4.087208 -10.30214 -3.538319 -4.637835 14.75704 -17.14695 -0 21.25801 -0 -3.870042 -19.34391 12.74296 -2.152506 -0.7745107 3.380934 2.621398 7.865002 -8.145142 0.5781642 22.12351 7.810399 3.90352 -24.47062 7.986755 5.506611 -17.04461 11.48509 87.708 36.62196 -21.6836 -0 0 10.97257 -12.55771 10.47875 7.946723 4.514524 -20.48839 -2.902707 -91.67071 34.09285 19.89364 0 0 -24.66677 -3.809117 13.64207 20.246
2.043458 100.2514 28.60784 -2.450378 2.849158 2.687173 8.843585 -29.68814 5.04155 -0 18.68105 -0 -6.191212 -9.735947 -3.573103 -4.135731 13.56859 -15.5357 -0 27.42277 -0 -4.490905 -16.39706 11.1936 -2.16674 -0.6991529 3.521873 2.543787 8.051577 -8.043694 0.5447628 22.03975 7.806046 3.910668 -24.27888 7.858923 5.516186 -17.08953 11.57698 87.34543 36.69167 -21.05374 -0 0 11.04167 -13.46656 10.87859 8.573508 4.421022 -20.4371 -2.957826 -91.29669 33.32257 19.74456 0 0 -24.38797 -3.542546 13.29814 19.87547
2.219917 100.5718 33.77739 -2.516904 1.467718 2.813416 8.674171 -25.73511 3.605659 -0 18.19067 -0 -8.46451 -9.058213 -3.472498 -3.657575 11.65531 -13.92183 -0 33.77458 -0 -4.676348 -13.27708 10.2202 -2.174677 -0.6185232 3.703568 2.41776 8.237953 -7.876992 0.5249964 21.98105 7.784352 3.921248 -23.98176 7.712957 5.533095 -17.18128 11.66757 86.83549 36.75099 -20.21405 -0 0 11.28779 -14.51811 11.36255 9.252801 4.31131 -20.31652 -3.025679 -91.08082 32.55952 19.82185 0 0 -23.85439 -3.389118 13.00983 19.62028
2.391695 101.2043 39.10007 -2.417244 -0.04717696 2.814699 8.427013 -21.13484 2.354493 -0 17.77352 -0 -10.57644 -8.527271 -3.259509 -3.186138 8.920415 -12.37239 -0 39.70215 -0 -4.553022 -10.26907 9.835128 -2.175537 -0.5335341 3.922545 2.245831 8.421786 -7.648848 0.5199162 21.94488 7.750216 3.933569 -23.5905 7.559998 5.554388 -17.31535 11.75543 86.19758 36.79583 -19.18835 -0 0 11.6973 -15.70466 11.9291 9.980178 4.189392 -20.13021 -3.101861 -91.00403 31.80751 20.09973 0 0 -23.09618 -3.338095 12.77539 19.47127
2.554151 102.0611 44.41394 -2.179329 -1.534535 2.692876 8.125031 -16.16225 1.404307 -0 17.17593 -0 -12.23691 -8.429198 -2.993402 -2.687431 5.343768 -10.93796 -0 44.47527 -0 -4.256874 -7.634006 10.00369 -2.168116 -0.4467532 4.172238 2.033313 8.598201 -7.366446 0.5310251 21.92879 7.70861 3.944902 -23.12261 7.414129 5.576371 -17.48599 11.83799 85.46118 36.82184 -18.0155 -0 0 12.25154 -16.99913 12.57015 10.73991 4.061083 -19.88441 -3.180227 -91.05016 31.0778 20.55056 0 0 -22.1539 -3.377148 12.59772 19.41841
2.707946 102.984 49.58463 -1.849601 -2.854591 2.45644 7.764958 -11.07018 0.7937483 -0 16.15498 -0 -13.2519 -9.019102 -2.747958 -2.118774 1.012644 -9.641659 -0 47.35214 -0 -3.9009 -5.56775 10.64209 -2.15093 -0.3609706 4.447478 1.78494 8.762713 -7.035436 0.5600038 21.93056 7.663148 3.952034 -22.59422 7.288012 5.59561 -17.69014 11.91314 84.65078 36.82629 -16.72677 -0 0 12.93768 -18.37447 13.27953 11.51745 3.931045 -19.58345 -3.254482 -91.21018 30.37892 21.15712 0 0 -21.0583 -3.494905 12.48223 19.45217
2.864538 103.7685 54.5356 -1.482439 -3.907703 2.117368 7.335113 -6.067008 0.4864912 -0 14.55093 -0 -13.56301 -10.43651 -2.575259 -1.445123 -3.842488 -8.482298 -0 47.71921 -0 -3.551308 -4.175956 11.62389 -2.122168 -0.279133 4.745347 1.504177 8.911097 -6.658666 0.6087541 21.94881 7.615349 3.951419 -22.01881 7.191798 5.609199 -17.9291 11.97946 83.78208 36.80811 -15.34047 -0 0 13.75268 -19.80464 14.05286 12.30045 3.801917 -19.22804 -3.318315 -91.48633 29.71815 21.91898 0 0 -19.82397 -3.684162 12.43838 19.56726
3.047628 104.2089 59.26572 -1.126851 -4.651 1.690831 6.829282 -1.292867 0.3919823 -0 12.3872 -0 -13.25793 -12.63 -2.482466 -0.6606007 -8.846076 -7.45222 -0 45.2791 -0 -3.223662 -3.452405 12.79925 -2.079629 -0.2038757 5.065932 1.19259 9.040138 -6.235303 0.6794033 21.98284 7.564353 3.939086 -21.40581 7.132514 5.614663 -18.20893 12.03668 82.85987 36.76785 -13.85748 -0 0 14.70418 -21.27008 14.88987 13.08273 3.673441 -18.81458 -3.365673 -91.89083 29.0983 22.85286 0 0 -18.44713 -3.94227 12.47882 19.76291
3.288454 104.1531 63.84761 -0.8144998 -5.105429 1.19678 6.251425 3.177066 0.399186 -0 9.953801 -0 -12.54113 -15.29952 -2.433082 0.1852165 -13.51585 -6.567893 -0 40.21773 -0 -2.894784 -3.282862 14.02869 -2.020843 -0.1375215 5.410626 0.8512919 9.147593 -5.76307 0.7740178 22.03207 7.507301 3.910447 -20.76313 7.114584 5.609535 -18.53823 12.08555 81.88365 36.7073 -12.26896 -0 0 15.80359 -22.75461 15.79234 13.86296 3.54285 -18.33768 -3.390794 -92.43965 28.51751 23.9835 0 0 -16.91554 -4.268873 12.61783 20.04074
3.61661 103.5505 68.40687 -0.5536732 -5.350121 0.6607912 5.612758 7.303695 0.4128031 -0 7.818614 -0 -11.67476 -17.89741 -2.3692 0.9693802 -17.35252 -5.895971 -0 33.26986 -0 -2.521459 -3.478787 15.21742 -1.943836 -0.08190473 5.778205 0.4842028 9.232537 -5.243801 0.8934725 22.09463 7.440817 3.860678 -20.10181 7.140222 5.591118 -18.92187 12.12761 80.86014 36.62969 -10.57536 -0 0 17.04947 -24.23932 16.75891 14.64111 3.406546 -17.79712 -3.389079 -93.13719 27.96913 25.32034 0 0 -15.23154 -4.659435 12.86535 20.39765
